Coordinates
version=1
nRows=19
nColumns=36
inDegrees=yes

Units are S.I. units (second, meters, Newtons, ...)
If the header above contains a line with 'inDegrees', this indicates whether rotational values are in degrees (yes) or radians (no).

endheader
time	pelvis_tilt	pelvis_list	pelvis_rotation	pelvis_tx	pelvis_ty	pelvis_tz	hip_flexion_r	hip_adduction_r	hip_rotation_r	knee_angle_r	knee_angle_r_beta	ankle_angle_r	subtalar_angle_r	mtp_angle_r	hip_flexion_l	hip_adduction_l	hip_rotation_l	knee_angle_l	knee_angle_l_beta	ankle_angle_l	subtalar_angle_l	mtp_angle_l	lumbar_extension	lumbar_bending	lumbar_rotation	arm_flex_r	arm_add_r	arm_rot_r	elbow_flex_r	pro_sup_r	arm_flex_l	arm_add_l	arm_rot_l	elbow_flex_l	pro_sup_l
      4.86666670	     -7.83539670	    -22.37201531	     72.80212775	      0.36283434	      1.00999716	     -0.24895736	     29.99710067	      5.61243617	    -21.46093513	      0.06464853	      0.00112833	    -49.76151360	     -7.63181080	     -7.49999987	     34.99016857	    -12.02030984	    -19.81413956	     23.35634883	      0.40764519	     -8.04444047	    -31.73837751	     -7.49999987	     15.98007250	     -0.23645879	     35.56316164	    -18.73818984	     19.62835350	    -46.85944046	     62.49395272	    114.99506085	      2.62410307	    -15.12499225	     40.11386283	     52.66899988	     73.43091685
      4.88333330	     -7.94571995	    -22.51092450	     72.57227859	      0.38709166	      1.01105903	     -0.26168636	     29.72799091	      6.52995540	    -26.55960014	      0.06179437	      0.00107852	    -49.80020800	     -6.47277015	     -7.49999987	     34.17565729	    -12.82858511	    -19.22601182	     22.59606548	      0.39437574	     -9.99753686	    -31.23098373	     -7.49999987	     17.13320438	     -0.81153330	     36.67606006	    -19.65628102	     21.81894132	    -47.74651118	     63.29974618	    115.26236086	      2.82040952	    -16.41866835	     39.94666180	     51.66571390	     73.68052193
      4.90000000	     -7.72062747	    -22.81764141	     72.34214311	      0.39983395	      1.00397535	     -0.26949168	     29.51993619	      7.73534951	    -31.47100546	      0.06108249	      0.00106609	    -49.82452851	     -5.73176587	     -7.49999987	     33.41967892	    -14.18807153	    -18.97185291	     22.30135153	      0.38923201	    -10.27121830	    -30.17653440	     -7.49999987	     18.55847901	     -0.93613688	     37.73167535	    -20.25618463	     23.76415389	    -48.54643363	     63.53319274	    115.50282405	      2.79153827	    -17.11843202	     40.10603900	     50.37235486	     74.19638665
      4.91666670	     -7.56398690	    -22.97882925	     72.24002919	      0.40170451	      1.00480038	     -0.26922047	     29.48227718	      8.38450058	    -35.11734944	      0.06279334	      0.00109595	    -49.82438800	     -6.47292434	     -7.49999987	     32.89224736	    -14.95727478	    -18.19221984	     21.97580043	      0.38355007	    -10.15264038	    -29.55979101	     -7.49999987	     19.46551540	     -0.97753602	     38.56924887	    -20.24427393	     25.11886388	    -49.45412212	     63.36656947	    115.81766234	      2.76404915	    -16.47880275	     40.13750828	     48.38960638	     75.05044055
      4.93333330	     -7.22926126	    -23.06562511	     71.98197868	      0.40323328	      1.00391955	     -0.27043176	     29.41976320	      9.06181170	    -37.52704649	      0.06576266	      0.00114777	    -49.81656875	     -7.46973628	     -7.49999987	     32.41432826	    -15.82668986	    -16.96227689	     21.36646649	      0.37291519	    -10.19045755	    -29.44955898	     -7.49999987	     19.90102214	     -0.53969195	     39.52855179	    -20.06874672	     26.07006981	    -50.48005510	     63.06141554	    115.77106746	      2.66223898	    -15.16572826	     40.06111677	     46.23015801	     75.74412738
      4.95000000	     -7.30049358	    -23.08783607	     71.73103885	      0.41116155	      1.00982272	     -0.26381171	     29.44153681	      9.33218591	    -38.46127482	      0.06888542	      0.00120228	    -49.80705215	     -8.04547949	     -7.49999987	     31.99870782	    -16.24475686	    -16.02401079	     20.33324735	      0.35488211	    -10.44987874	    -27.91770573	     -7.49999987	     20.28560899	     -0.58228747	     40.49426501	    -19.83214295	     26.89867659	    -51.75191863	     62.50629503	    116.08081274	      2.54540198	    -13.73421212	     39.93208817	     44.20055888	     77.25892261
      4.96666670	     -7.85120600	    -22.95815949	     71.25571260	      0.41167991	      1.00818239	     -0.26460684	     29.50491863	      8.96021539	    -38.88872189	      0.06821843	      0.00119064	    -49.79336829	     -9.43851387	     -7.49999987	     31.57607614	    -15.84190234	    -15.29875757	     19.57607876	      0.34166703	     -8.84348720	    -27.18077130	     -7.49999987	     20.51106060	     -0.94298095	     41.48671417	    -19.11863494	     27.39761812	    -53.13275528	     61.71700553	    116.29027871	      2.18350086	    -11.86712786	     39.57296308	     42.21452309	     78.37507934
      4.98333330	     -8.94358645	    -22.64422503	     70.34791124	      0.42293194	      1.00853149	     -0.26925165	     29.31829699	      8.36566976	    -39.15053371	      0.06562706	      0.00114541	    -49.79034051	    -10.25781792	     -7.49999987	     30.51018596	    -15.18080667	    -14.46825715	     18.27977242	      0.31904222	     -8.37489990	    -26.72254422	     -7.49999987	     21.06624947	     -2.01803557	     43.04601411	    -18.65180378	     28.23164153	    -54.36779871	     60.71454338	    116.44297670	      2.03613437	    -10.61698392	     39.72579142	     40.74407145	     79.75123768
      5.00000000	     -9.83766022	    -22.60814540	     69.33566969	      0.42437187	      1.00080260	     -0.26964420	     29.41751640	      8.23690453	    -39.30263977	      0.06482218	      0.00113136	    -49.79189714	    -10.50060585	     -7.49999987	     29.61741302	    -14.91923422	    -14.03389787	     17.24564665	      0.30099332	     -8.44378579	    -27.55354588	     -7.49999987	     21.83864494	     -2.69448562	     44.80765654	    -18.03967967	     29.07965746	    -55.80727936	     59.51741248	    116.55389862	      1.71506826	     -9.48106345	     40.23474611	     39.53557507	     80.76107257
      5.01666670	    -10.57091105	    -22.76928098	     68.39118774	      0.42686126	      1.00031174	     -0.26873869	     29.68592837	      8.32504804	    -39.43852845	      0.06681722	      0.00116618	    -49.80022741	    -10.30145496	     -7.49999987	     28.97329528	    -15.04982558	    -13.48928993	     16.39891224	      0.28621501	     -9.66988794	    -28.98029122	     -7.49999987	     22.69252807	     -3.09566068	     46.16120513	    -17.57821081	     29.36193013	    -56.31113919	     57.97196815	    116.51262992	      0.96775283	     -8.34004224	     40.52028824	     38.63436244	     80.83960228
      5.03333330	    -11.30614403	    -22.34659130	     67.85728568	      0.42865572	      0.99933499	     -0.26941472	     29.41994469	      7.69319038	    -39.50870130	      0.06781335	      0.00118357	    -49.80153092	     -9.50035927	     -7.49999987	     28.00017396	    -14.56451587	    -12.88643683	     15.99638782	      0.27918964	     -9.47425677	    -30.61088310	     -7.49999987	     22.70746299	     -3.70509684	     47.63790605	    -16.05108036	     29.66916849	    -58.76418606	     55.81994871	    116.22108018	      0.60815846	     -6.44143185	     41.68038882	     36.98007204	     81.47033607
      5.05000000	    -11.72459662	    -22.33833078	     67.39149010	      0.42998415	      1.00011140	     -0.26808655	     29.59177118	      7.35755769	    -39.50778160	      0.06823527	      0.00119093	    -49.79497051	     -9.10008473	     -7.49999987	     27.55111633	    -14.54634017	    -12.38339334	     15.85933320	      0.27679758	     -9.08183325	    -31.08385083	     -7.49999987	     22.99789773	     -3.92280068	     49.89213523	    -14.86188576	     30.29791275	    -62.28394874	     54.61246158	    116.92862504	      0.67684593	     -4.66720448	     44.48119085	     35.36591072	     82.38274928
      5.06666670	    -12.47367621	    -22.31515104	     66.70366704	      0.43228218	      0.99543713	     -0.26928832	     29.85465523	      6.80463274	    -39.49094983	      0.06754037	      0.00117880	    -49.77812374	     -9.20018621	     -7.49999987	     26.93362696	    -14.22344960	    -10.91430142	     15.29337436	      0.26691974	     -9.36778364	    -33.21616511	     -7.49999987	     23.30330744	     -4.62442780	     51.67308564	    -13.52575732	     30.63099909	    -64.72665639	     52.67088068	    117.07612716	      0.29154581	     -3.12124788	     46.45566878	     34.16897744	     82.06611228
      5.08333330	    -12.73741155	    -22.78861930	     65.98814898	      0.43608078	      0.99046118	     -0.26748753	     30.41706347	      7.09127028	    -39.46707836	      0.06747521	      0.00117766	    -49.76626593	     -9.26164348	     -7.49999987	     26.68475556	    -15.01189878	    -10.35470207	     15.15159434	      0.26444521	    -11.02513558	    -34.08422913	     -7.49999987	     23.82950107	     -4.65466645	     53.82006815	    -12.43173028	     31.01420678	    -67.55991765	     50.95279441	    117.13387574	      0.13528154	     -2.04429411	     50.45021507	     33.36055896	     80.33831127
      5.10000000	    -12.63949384	    -23.53560095	     65.45715522	      0.43917816	      0.99447242	     -0.26943522	     31.03183031	      7.60017370	    -39.35981819	      0.06498192	      0.00113415	    -49.75490787	     -7.76334203	     -7.49999987	     26.57780473	    -16.07525710	    -11.04678623	     15.08001178	      0.26319586	    -16.21453736	    -34.38699793	     -7.49999987	     24.49390018	     -4.41280990	     55.49405873	    -11.69752051	     31.46909258	    -69.81891105	     49.36642249	    117.24992812	     -0.90574778	     -0.91349154	     52.52075255	     33.05529717	     80.76423298
      5.11666670	    -12.40780297	    -24.04204285	     65.33688903	      0.44198037	      0.99783231	     -0.26791856	     31.33471686	      7.91039474	    -39.17151558	      0.06156615	      0.00107453	    -49.73875367	     -5.69895736	     -7.49999987	     26.38874762	    -16.67487237	    -10.99907767	     14.75938174	      0.25759981	    -21.02591425	    -34.52887656	     -7.49999987	     24.79203927	     -4.31590341	     57.21156360	    -10.75038665	     31.87857329	    -72.82037877	     47.89417534	    117.23430402	     -1.59746441	      0.08797578	     56.17829776	     32.69428873	     80.15313158
      5.13333330	    -11.85371196	    -24.46926882	     65.32442588	      0.44969417	      0.99251894	     -0.26289531	     31.56588480	      8.59899856	    -38.94669242	      0.05868587	      0.00102426	    -49.71489047	     -4.72572782	     -7.49999987	     26.22738692	    -17.33261822	    -10.59471761	     14.43325873	      0.25190789	    -23.51213895	    -34.58666919	     -7.49999987	     24.86122707	     -3.87139748	     58.41744558	     -9.90877264	     32.24940736	    -75.40258156	     46.46807801	    117.27299166	     -2.53847016	      1.33831372	     58.98646042	     32.30311213	     80.06296103
      5.15000000	    -12.05600530	    -23.93472394	     65.69206248	      0.44355410	      0.99815045	     -0.26734774	     31.12033754	      7.68978513	    -38.69153188	      0.05350898	      0.00093391	    -49.69013388	     -3.31295104	     -7.49999987	     25.67741528	    -16.07058594	     -9.90282408	     14.53732332	      0.25372416	    -23.20844997	    -34.65646172	     -7.49999987	     24.17289165	     -4.89329879	     58.86105452	     -9.14653906	     32.00117707	    -76.47944244	     44.56892989	    117.15838989	     -3.65997102	      2.83262832	     60.76679021	     31.66678446	     79.92596008
      5.16666670	    -12.21815598	    -23.69193338	     65.47980163	      0.44442803	      0.99799483	     -0.26757156	     31.07150186	      7.23846420	    -38.28671346	      0.05011684	      0.00087470	    -49.68845226	     -2.67042172	     -7.49999987	     25.13268766	    -15.40347722	     -9.81578965	     14.55962548	      0.25411340	    -22.65128048	    -34.69297209	     -7.49999987	     24.02318927	     -5.38310762	     61.51166269	     -7.91364121	     32.03872585	    -80.12699479	     42.83781187	    117.21558716	     -3.75984594	      4.01303304	     66.44777741	     30.64486210	     78.08403610
